<svg class="svg-icon" version="1.2" baseProfile="tiny" xmlns="http://www.w3.org/2000/svg" xmlns:xlink="http://www.w3.org/1999/xlink" width="100" height="100" viewBox="-199 201 100 100">
	<path id="back_appstore" fill="#EEB711" d="M-129.4,299.5h-39.2c-3.7,0-6.8-3-6.8-6.8v-83.4c0-3.7,3-6.8,6.8-6.8h39.2c3.7,0,6.8,3,6.8,6.8v83.4
	C-122.6,296.5-125.7,299.5-129.4,299.5z"/>
	<path id="fore_appstore" fill="#201F1F" d="M-125.7,210.9c0-2.8-2.3-5-5-5h-36.8c-2.8,0-5,2.3-5,5v80.3c0,2.8,2.3,5,5,5h36.8c2.8,0,5-2.3,5-5V210.9z
	 M-156.6,210.6h15.2c0.4,0,0.7,0.3,0.7,0.7s-0.3,0.7-0.7,0.7h-15.2c-0.4,0-0.7-0.3-0.7-0.7S-157,210.6-156.6,210.6z M-149,293.6
	c-2.7,0-4.8-2.2-4.8-4.8c0-2.7,2.2-4.8,4.8-4.8c2.7,0,4.8,2.2,4.8,4.8C-144.2,291.4-146.3,293.6-149,293.6z M-129,282.1h-40v-65.5
	h40V282.1z"/>
</svg>
