<?xml version="1.0" encoding="utf-8"?>
<!-- Generator: Adobe Illustrator 19.0.0, SVG Export Plug-In . SVG Version: 6.00 Build 0)  -->
<svg version="1.1" xmlns="http://www.w3.org/2000/svg" xmlns:xlink="http://www.w3.org/1999/xlink" x="0px" y="0px"
	 viewBox="0 0 500 500" style="enable-background:new 0 0 500 500;" xml:space="preserve">
<style type="text/css">
	.st0{opacity:0.2;}
	.st1{fill:#232323;}
	.st2{fill:#EAB381;}
	.st3{fill:#E2E2E2;}
	.st4{fill:#E27E2B;}
	.st5{fill:#C1C1C1;}
	.st6{fill:#F2F2F2;}
	.st7{fill:#B26632;}
	.st8{fill:#C9C9C9;}
	.st9{fill:#FFCB8D;}
	.st10{fill:#F9C48C;}
	.st11{fill:#DD8950;}
	.st12{fill:#E0E0E0;}
	.st13{fill:#64845D;}
	.st14{fill:#161616;}
	.st15{fill:#E29059;}
	.st16{fill:#DBAE7D;}
	.st17{fill:#E26969;}
	.st18{fill:#D8D8D8;}
	.st19{fill:#D1D1D1;}
	.st20{fill:#444141;}
	.st21{fill:#FFFFFF;}
</style>
<g id="Шар_11" class="st0">
	<path id="XMLID_62_" class="st1" d="M244,393.3c-118-14-214.2,8.1-214.2,8.1L244,491.4l214.2-90.1C458.2,401.3,362,379.3,244,393.3
		z"/>
</g>
<g id="Шар_9">
	<path id="XMLID_60_" class="st2" d="M289.2,343.2c-6.7-19.3-6.8-68.1-6.8-68.1L244,287l-38.5-11.9c0,0,0,48.7-6.8,68.1
		s45.3,83.2,45.3,83.2S296,362.5,289.2,343.2z"/>
	<path id="XMLID_59_" class="st3" d="M383.3,368.2c-39.9-34.9-98.6-47.5-98.6-47.5l0.6,4.8c0,0,2.7,17.6-6.2,26.5
		c-13.3,13.3-35.1,74.4-35.1,74.4s-21.9-61.1-35.2-74.4c-8.9-8.9-6.3-26.5-6.3-26.5l0.6-4.8c0,0-58.8,12.6-98.6,47.5
		C73,395.6,73,410.6,71.7,411.1C70.4,411.5,244,484,244,484s173.5-72.5,172.1-72.9C414.8,410.6,414.7,395.6,383.3,368.2z"/>
	<g id="XMLID_1_">
		<path id="XMLID_10_" class="st4" d="M205.6,467.9c-0.6-11.7-2-29.4-5.1-51.9c-5.5-39.8-16.9-83.7-18.4-89.5
			c-20.7,6.8-52.8,19.9-77.6,41.6C73,395.6,73,410.6,71.7,411.1C70.8,411.4,154.5,446.5,205.6,467.9z"/>
		<path id="XMLID_13_" class="st4" d="M383.3,368.2c-24.8-21.7-56.8-34.7-77.6-41.5c-1.5,5.8-12.9,49.7-18.4,89.4
			c-3.1,22.6-4.5,40.3-5.1,51.9c51-21.4,134.8-56.6,133.9-56.9C414.8,410.6,414.7,395.6,383.3,368.2z"/>
	</g>
	<g id="Шар_14_копія">
	</g>
	<g id="XMLID_51_">
		<polygon id="XMLID_63_" class="st5" points="260.7,357.2 243.7,426.4 281.6,366.1 		"/>
		<polygon id="XMLID_53_" class="st5" points="227,357.2 244,426.4 206.1,366.1 		"/>
	</g>
	<g id="XMLID_57_">
		<path id="XMLID_52_" class="st6" d="M203.5,316.4c0-0.2-25.8,6.9-26.5,7.2c-0.7,0.2-11.1,16.1-2.6,35.3
			c8.6,19.2,22.7,13.1,23.6,12.8c14-4.6,28.9-14.5,28.9-14.5S203.7,338.3,203.5,316.4z"/>
		<path id="XMLID_56_" class="st6" d="M284.2,316.4c0-0.2,25.8,6.9,26.5,7.2c0.7,0.2,11.1,16.1,2.6,35.3
			c-8.6,19.2-22.7,13.1-23.6,12.8c-14-4.6-28.9-14.5-28.9-14.5S284,338.3,284.2,316.4z"/>
	</g>
</g>
<g id="Шар_9_копія">
	<path id="XMLID_70_" class="st7" d="M184.5,285l12.6,8.9c0,0-11.9-12.1-6.3-19.1c5.6-7,94.9-8.6,97.7,4c2.8,12.6-1.5,13.6-1.5,13.6
		s7.5-0.8,14.7-10.7c7.2-9.9,22.3-50.8,17.5-69.1s-13.3-18.6-19.6-49.5s-54.2-42.8-58.3-32.2s-21.5,35-30.6,39.3
		c-9.1,4.3-29,14.4-40.4,17.9c-11.5,3.5-18.3,35.2-15.5,44.3s4.4,16.3,4.8,23.4S174.5,279.2,184.5,285z"/>
	<path id="XMLID_85_" class="st8" d="M175.4,214.3c0,0-7.7,0.8-8.5,6.9s-5.2,18.7-0.5,29.4c4.6,10.7,16,5.4,16,5.4L175.4,214.3z"/>
	<ellipse id="XMLID_65_" class="st9" cx="241.3" cy="221.2" rx="66.7" ry="87.7"/>
	<path id="XMLID_5_" class="st10" d="M308,220c-0.3-31.3-13.1-58.6-32.1-73.8c-4.8-1.4-8.2-2.3-8.2-2.3l-57.5,30.9L177.1,197
		c-1.7,7.7-2.6,15.8-2.6,24.1c0,45.2,26.1,82.5,59.5,87.2c-7.9-2.3-18.5-7.3-29.9-18.4c-23.5-22.8-27.9-59.9-26.9-70.7
		c1-10.9,0-14.4,9.5-17.3c9.5-3,47.8-13.9,61-27.4c13.2-13.5,20.9-22.7,20.9-22.7s7.8,7.7,16,19.2C292,181.3,303.9,204.3,308,220z"
		/>
	<g id="XMLID_75_">
		<path id="XMLID_66_" class="st11" d="M181.7,212.2c0,0,13.4-4.7,23.8-3.4c10,1.2,18.1,15.7,18.1,15.7s-11.5,6.3-21,5.5
			C185.5,228.5,181.7,212.2,181.7,212.2z"/>
		<path id="XMLID_67_" class="st12" d="M185.7,215.1c0,0,19.5-4.8,26.1-1.4c6.6,3.5,10.9,11,10.9,11s-13.1,7-23.6,3.8
			C193,226.7,187.5,222.1,185.7,215.1z"/>
		<g id="XMLID_74_">
			<path id="XMLID_8_" class="st13" d="M214.6,217c0-0.5,0-1-0.1-1.5c-0.9-0.6-1.8-1.2-2.7-1.7c-3.8-2-11.9-1.2-18.1-0.2
				c-0.4,1.1-0.6,2.2-0.6,3.5c0,5.9,4.8,10.7,10.7,10.7S214.6,222.9,214.6,217z"/>
			<path id="XMLID_9_" class="st14" d="M211.3,217c0-1.4-0.4-2.7-1.1-3.8c-3.2-0.9-8.1-0.7-12.6-0.2c-0.7,1.2-1.2,2.5-1.2,4
				c0,4.1,3.3,7.4,7.4,7.4S211.3,221.1,211.3,217z"/>
		</g>
	</g>
	<g id="XMLID_76_">
		<path id="XMLID_83_" class="st11" d="M301.6,212.2c0,0-13.4-4.7-23.8-3.4c-10,1.2-18.1,15.7-18.1,15.7s11.5,6.3,21,5.5
			C297.7,228.5,301.6,212.2,301.6,212.2z"/>
		<path id="XMLID_82_" class="st12" d="M297.5,215.1c0,0-19.5-4.8-26.1-1.4s-10.9,11-10.9,11s13.1,7,23.6,3.8
			C290.3,226.7,295.7,222.1,297.5,215.1z"/>
		<g id="XMLID_77_">
			<path id="XMLID_7_" class="st13" d="M271.4,213.7c-1,0.5-1.9,1.1-2.7,1.7c-0.1,0.5-0.1,1-0.1,1.5c0,5.9,4.8,10.7,10.7,10.7
				c5.9,0,10.7-4.8,10.7-10.7c0-1.2-0.2-2.4-0.6-3.5C283.3,212.5,275.2,211.7,271.4,213.7z"/>
			<path id="XMLID_6_" class="st14" d="M272.9,213.1c-0.7,1.1-1.1,2.4-1.1,3.8c0,4.1,3.3,7.4,7.4,7.4c4.1,0,7.4-3.3,7.4-7.4
				c0-1.5-0.4-2.9-1.2-4C281,212.4,276.2,212.2,272.9,213.1z"/>
		</g>
	</g>
	<path id="XMLID_103_" class="st7" d="M223.6,208.6c0,0-5.3-6-11.8-9.3s-26-1.3-26-1.3s-0.4-1.7,3.1-1.7
		C192.3,196.3,213.4,189.3,223.6,208.6z"/>
	<path id="XMLID_104_" class="st7" d="M259.7,208.6c0,0,5.3-6,11.8-9.3s26-1.3,26-1.3s0.4-1.7-3.1-1.7S269.9,189.3,259.7,208.6z"/>
	<path id="XMLID_68_" class="st11" d="M268.5,148.5c0,0-16.1,25.5-45.8,38s-43.7,12-52.2,26c-8.5,14-9,35.3-3.8,46.3
		c10.3,21.4,29.8,38.7,29.8,38.7s-21.9-8.4-41-33.9c-18.7-25-19.5-76.1-8.5-112.6s34.9-65.5,75.7-69s75.3,8,90.8,23
		s36.5,52.9,35.5,84.4S330.5,265,321.5,278s-31.1,22.6-31.1,22.6l5.9-9l-3.5,1.8c0,0,5.8-5.9,7.8-9.4s3-7.5,3-7.5s7.2-18.7,5.8-47.1
		c-1.3-28-6.1-28.6-13.8-45.4C288.6,169.2,268.5,148.5,268.5,148.5z"/>
	<g id="XMLID_101_">
		<path id="XMLID_3_" class="st15" d="M346,212.5c1.6-8,2.7-15.8,3-23c0.9-26.8-14.2-58.2-28.2-76.2c-13.8-4.3-28.4-4.9-44.7,4.4
			c0,0,19.5-8.7,41.6,13.4C339.8,153.2,348.7,186.2,346,212.5z"/>
		<path id="XMLID_4_" class="st15" d="M244.4,98.4c-10.9-1.7-40.6-13.4-76.7,12.2c-9.4,11.3-16.2,25.2-20.8,40.4
			c-4.5,15-7,32.4-7.2,49.5c0.3-8.4,2.7-32.5,20.9-54c22.4-26.5,53.6-39.3,72.5-40.5c18.9-1.2,36.7,10.8,36.7,10.8
			S255.3,100.2,244.4,98.4z"/>
	</g>
	<path id="XMLID_92_" class="st16" d="M250,259.6l-9,4.4l-9.1-4.4c0,0-0.4,2.3,2.5,5.4c2.9,3.1,6.6,3.8,6.6,3.8s3.7-0.7,6.5-3.8
		S250,259.6,250,259.6z"/>
	<path id="XMLID_86_" class="st10" d="M241,265.6c0,0-7.5-0.7-8.9-4.7c-1.5-3.9,8.9-15.2,8.9-31S241,265.6,241,265.6z"/>
	<g id="XMLID_88_">
		<path id="XMLID_89_" class="st9" d="M241,265.6c0,0,7.5-0.7,8.9-4.7c1.5-3.9-8.9-15.2-8.9-31S241,265.6,241,265.6z"/>
	</g>
	<path id="XMLID_93_" class="st17" d="M247.3,275.1c-4.1-0.4-5.7,1.3-6.3,2.2c-0.6-1-2.2-2.6-6.3-2.2c-5.8,0.5-11.3-0.4-11.3-0.4
		s6.1,7.5,8.4,8.6c4.1,1.9,5.1,3.1,9.3,3.1s5.1-1.1,9.2-3.1c2.4-1.1,8.4-8.6,8.4-8.6S253.1,275.6,247.3,275.1z"/>
	<path id="XMLID_106_" class="st18" d="M223.3,290c-2.5-0.1-5.6-0.4-9.5-0.9c-14.1-1.8-23-4.3-32.8-13c-9.7-8.7-10.9-25.3-11-26
		c-0.1-1.1,0.8-2.1,1.9-2.1c1.1-0.1,2.1,0.8,2.1,1.9c0,0.2,1.2,15.7,9.7,23.3c8.9,8,17.3,10.3,30.6,12c3.5,0.4,6.4,0.7,8.7,0.9
		C229.3,286.4,225,290.1,223.3,290z"/>
	<path id="XMLID_2_" class="st19" d="M172.3,255.5c0.6-1.4,1.5-2.1,2.1-2.5c-0.3-1.9-0.4-3.1-0.4-3.2c-0.1-1.1-1-1.9-2.1-1.9
		c-1.1,0.1-1.9,1-1.9,2.1c0,0.7,1.3,17.4,11,26c9.7,8.7,18.7,11.2,32.8,13c1.9,0.2,3.6,0.4,5.1,0.6c-10.2-1.5-23.8-3.4-34.1-11.3
		C174.4,270.5,171.3,257.8,172.3,255.5z"/>
	<path id="XMLID_87_" class="st20" d="M227.6,292.5h-4.7c-2.4,0-4.3-1.9-4.3-4.3v0c0-2.4,1.9-4.3,4.3-4.3h4.7c2.4,0,4.3,1.9,4.3,4.3
		v0C231.9,290.6,230,292.5,227.6,292.5z"/>
	<ellipse id="XMLID_90_" class="st21" cx="210.2" cy="216" rx="2.5" ry="0.6"/>
	<ellipse id="XMLID_94_" class="st21" cx="287.2" cy="216" rx="2.5" ry="0.6"/>
	<path id="XMLID_102_" class="st15" d="M265.8,129.8c0,0-18,23.7-37.6,35.8S180,187.3,180,187.3s22.9-8.6,38.4-21.5
		S258,133.5,265.8,129.8z"/>
</g>
</svg>
