<?xml version="1.0" encoding="utf-8"?>
<!-- Generator: Adobe Illustrator 19.0.0, SVG Export Plug-In . SVG Version: 6.00 Build 0)  -->
<svg version="1.1" id="Шар_1" xmlns="http://www.w3.org/2000/svg" xmlns:xlink="http://www.w3.org/1999/xlink" x="0px" y="0px"
	 viewBox="0 0 960 400" style="enable-background:new 0 0 960 400;" xml:space="preserve">
<style type="text/css">
	.st0{fill:none;}
	.st1{fill:#FFFFFF;}
	.st2{fill-rule:evenodd;clip-rule:evenodd;fill:#FFFFFF;}
</style>
<g id="XMLID_228_">
	<g id="XMLID_263_">
		<g id="XMLID_264_">
			<path id="XMLID_265_" class="st0" d="M475.7,313.5h-9.5c-2.5,0-4.5-2-4.5-4.5v-5.1l-1.6-0.1l-0.8,5c-0.4,2.5-2.7,4.1-5.2,3.8
				l-9.3-1.5c-2.5-0.4-4.2-2.7-3.8-5.2l0.8-5l-1.5-0.4l-1.6,4.9c-0.4,1.2-1.2,2.1-2.3,2.6c-1.1,0.5-2.3,0.6-3.4,0.3l-9-2.9
				c-1.1-0.4-2.1-1.2-2.6-2.2c-0.5-1.1-0.6-2.3-0.3-3.4l1.6-4.9l-1.5-0.6l-2.3,4.5c-1.1,2.2-3.9,3.1-6.1,2l-8.4-4.3
				c-1.1-0.5-1.9-1.5-2.2-2.6c-0.4-1.1-0.3-2.4,0.3-3.4l2.3-4.5l-1.3-0.8l-3,4.1c-1.5,2-4.3,2.5-6.3,1l-7.7-5.6
				c-2-1.5-2.5-4.3-1-6.3l3-4.1l-1.2-1l-3.6,3.6c-1.8,1.8-4.6,1.8-6.4,0l-6.7-6.7c-0.9-0.9-1.3-2-1.3-3.2c0-1.2,0.5-2.3,1.3-3.2
				l3.6-3.6l-1-1.2l-4.1,3c-2,1.5-4.9,1-6.3-1l-5.6-7.7c-0.7-1-1-2.2-0.8-3.4c0.2-1.2,0.8-2.2,1.8-3l4.1-3l-0.8-1.3l-4.5,2.3
				c-2.2,1.1-5,0.2-6.1-2l-4.3-8.4c-1.1-2.2-0.2-4.9,2-6.1l4.5-2.3l-0.6-1.5l-4.9,1.6c-2.4,0.8-4.9-0.5-5.7-2.9l-2.9-9
				c-0.8-2.4,0.5-4.9,2.9-5.7l4.9-1.6l-0.4-1.5l-5,0.8c-2.5,0.4-4.8-1.3-5.2-3.8l-1.5-9.3c-0.4-2.5,1.3-4.8,3.8-5.2l5-0.8l-0.1-1.6
				h-5.1c-2.5,0-4.5-2-4.5-4.5v-9.5c0-2.5,2-4.5,4.5-4.5h5.1l0.1-1.6l-5-0.8c-2.5-0.4-4.2-2.7-3.8-5.2l1.5-9.3
				c0.4-2.5,2.7-4.1,5.2-3.8l5,0.8l0.4-1.5l-4.9-1.6c-1.1-0.4-2.1-1.2-2.6-2.2c-0.5-1.1-0.6-2.3-0.3-3.4l2.9-9
				c0.4-1.1,1.2-2.1,2.2-2.6c1.1-0.6,2.3-0.6,3.4-0.3l4.9,1.6l0.6-1.5l-4.5-2.3c-2.2-1.1-3.1-3.9-2-6.1l4.3-8.4
				c0.5-1.1,1.5-1.9,2.6-2.2c1.1-0.4,2.4-0.3,3.5,0.3l4.5,2.3l0.8-1.3l-4.1-3c-1-0.7-1.6-1.8-1.8-3c-0.2-1.2,0.1-2.4,0.8-3.4
				l5.6-7.7c1.5-2,4.3-2.5,6.3-1l4.1,3l1-1.2l-3.6-3.6c-1.8-1.8-1.8-4.6,0-6.4l6.7-6.7c1.8-1.8,4.6-1.8,6.4,0l3.6,3.6l1.2-1l-3-4.1
				c-0.7-1-1-2.2-0.8-3.4c0.2-1.2,0.8-2.2,1.8-3l7.7-5.6c2-1.5,4.9-1,6.3,1l3,4.1l1.3-0.8l-2.3-4.5c-0.5-1.1-0.6-2.3-0.3-3.4
				c0.4-1.1,1.2-2.1,2.2-2.6l8.4-4.3c2.2-1.1,5-0.2,6.1,2l2.3,4.5l1.5-0.6l-1.6-4.9c-0.4-1.1-0.3-2.4,0.3-3.4
				c0.5-1.1,1.5-1.9,2.6-2.2l9-2.9c1.2-0.4,2.4-0.3,3.4,0.3c1.1,0.5,1.9,1.5,2.2,2.6l1.6,4.9l1.5-0.4l-0.8-5
				c-0.4-2.5,1.3-4.8,3.8-5.2l9.3-1.5c1.2-0.2,2.4,0.1,3.4,0.8c1,0.7,1.6,1.8,1.8,3l0.8,5l1.6-0.1v-5.1c0-2.5,2-4.5,4.5-4.5h9.5
				c2.5,0,4.5,2,4.5,4.5v5.1l1.6,0.1l0.8-5c0.4-2.5,2.8-4.1,5.2-3.8l9.3,1.5c2.5,0.4,4.1,2.7,3.8,5.2l-0.8,5l1.5,0.4l1.6-4.9
				c0.8-2.4,3.3-3.7,5.7-2.9l9,2.9c1.1,0.4,2.1,1.2,2.6,2.2s0.6,2.3,0.3,3.4l-1.6,4.9l1.5,0.6l2.3-4.5c1.1-2.2,3.9-3.1,6.1-2
				l8.4,4.3c2.2,1.1,3.1,3.9,2,6.1l-2.3,4.5l1.3,0.8l3-4.1c0.7-1,1.8-1.6,3-1.8c1.2-0.2,2.4,0.1,3.4,0.8l7.7,5.6
				c2,1.5,2.5,4.3,1,6.3l-3,4.1l1.2,1l3.6-3.6c1.7-1.7,4.7-1.7,6.4,0l6.7,6.7c1.8,1.8,1.8,4.6,0,6.4l-3.6,3.6l1,1.2l4.1-3
				c2-1.5,4.9-1,6.3,1l5.6,7.7c1.5,2,1,4.9-1,6.3l-4.1,3l0.8,1.3l4.5-2.3c1.1-0.5,2.3-0.6,3.4-0.3c1.1,0.4,2.1,1.2,2.6,2.2l4.3,8.4
				c0.5,1.1,0.6,2.3,0.3,3.5c-0.4,1.1-1.2,2.1-2.2,2.6l-4.5,2.3l0.6,1.5l4.9-1.6c1.1-0.4,2.4-0.3,3.4,0.3c1.1,0.5,1.9,1.5,2.3,2.6
				l2.9,9c0.4,1.1,0.3,2.4-0.3,3.4c-0.6,1.1-1.5,1.9-2.6,2.2l-4.9,1.6l0.4,1.5l5-0.8c2.4-0.4,4.8,1.3,5.2,3.8l1.5,9.3
				c0.4,2.5-1.3,4.8-3.8,5.2l-5,0.8l0.1,1.6h5.1c2.5,0,4.5,2,4.5,4.5v9.5c0,2.5-2,4.5-4.5,4.5h-5.1l-0.1,1.6l5,0.8
				c2.5,0.4,4.1,2.7,3.8,5.2l-1.5,9.3c-0.4,2.5-2.7,4.2-5.2,3.8l-5-0.8l-0.4,1.5l4.9,1.6c1.1,0.4,2.1,1.2,2.6,2.2
				c0.5,1.1,0.6,2.3,0.3,3.5l-2.9,9c-0.8,2.4-3.3,3.7-5.7,2.9l-4.9-1.6l-0.6,1.5l4.5,2.3c2.2,1.1,3.1,3.9,2,6.1l-4.3,8.4
				c-1.1,2.2-3.9,3.1-6.1,2l-4.5-2.3l-0.8,1.3l4.1,3c1,0.7,1.6,1.8,1.8,3c0.2,1.2-0.1,2.4-0.8,3.4l-5.6,7.7c-1.5,2-4.3,2.5-6.3,1
				l-4.1-3l-1,1.2l3.6,3.6c0.9,0.9,1.3,2,1.3,3.2c0,1.2-0.5,2.3-1.3,3.2l-6.7,6.7c-1.7,1.7-4.7,1.7-6.4,0l-3.6-3.6l-1.2,1l3,4.1
				c1.5,2,1,4.9-1,6.3l-7.7,5.6c-1,0.7-2.2,1-3.4,0.8c-1.2-0.2-2.2-0.8-3-1.8l-3-4.1l-1.3,0.8l2.3,4.5c1.1,2.2,0.2,4.9-2,6.1
				l-8.4,4.3c-2.2,1.1-4.9,0.2-6.1-2l-2.3-4.5l-1.5,0.6l1.6,4.9c0.8,2.4-0.5,4.9-2.9,5.7l-9,2.9c-2.4,0.8-4.9-0.5-5.7-2.9l-1.6-4.9
				l-1.5,0.4l0.8,5c0.4,2.5-1.3,4.8-3.8,5.2l-9.3,1.5c-2.5,0.4-4.8-1.3-5.2-3.8l-0.8-5l-1.6,0.1v5.1
				C480.3,311.5,478.2,313.5,475.7,313.5z M458.4,301.5l5.4,0.4v7c0,1.3,1.1,2.4,2.4,2.4h9.5c1.3,0,2.4-1.1,2.4-2.4v-7l5.4-0.4
				l1.1,7c0.2,1.3,1.5,2.2,2.8,2l9.3-1.5c1.3-0.2,2.2-1.5,2-2.8l-1.1-7l5.3-1.3l2.2,6.7c0.2,0.6,0.6,1.1,1.2,1.4
				c0.6,0.3,1.2,0.3,1.9,0.1l9-2.9c1.3-0.4,2-1.8,1.6-3.1l-2.2-6.7l5-2.1l3.2,6.3c0.6,1.2,2.1,1.7,3.3,1.1l8.4-4.3
				c1.2-0.6,1.7-2.1,1.1-3.3l-3.2-6.3l4.6-2.8l4.1,5.7c0.8,1.1,2.3,1.3,3.4,0.5l7.7-5.6c1.1-0.8,1.3-2.3,0.5-3.4l-4.1-5.7l4.1-3.5
				l5,5c0.9,0.9,2.5,1,3.4,0l6.7-6.7c0.9-0.9,0.9-2.5,0-3.4l-5-5l3.5-4.1l5.7,4.1c1.1,0.8,2.6,0.5,3.4-0.5l5.6-7.7
				c0.8-1.1,0.5-2.6-0.5-3.4l-5.7-4.1l2.8-4.6l6.3,3.2c1.2,0.6,2.7,0.1,3.3-1.1l4.3-8.4c0.6-1.2,0.1-2.7-1.1-3.3l-6.3-3.2l2.1-5
				l6.7,2.2c1.3,0.4,2.6-0.3,3.1-1.6l2.9-9c0.2-0.6,0.1-1.3-0.2-1.9c-0.3-0.6-0.8-1-1.4-1.2l-6.7-2.2l1.3-5.3l7,1.1
				c1.3,0.2,2.6-0.7,2.8-2l1.5-9.3c0.2-1.3-0.7-2.6-2-2.8l-7-1.1l0.4-5.4h7c1.3,0,2.4-1.1,2.4-2.4v-9.5c0-1.3-1.1-2.4-2.4-2.4h-7
				l-0.4-5.4l7-1.1c1.3-0.2,2.2-1.5,2-2.8l-1.5-9.3c-0.2-1.3-1.4-2.3-2.8-2l-7,1.1l-1.3-5.3l6.7-2.2c0.6-0.2,1.1-0.6,1.4-1.2
				c0.3-0.6,0.4-1.2,0.2-1.9l-2.9-9c-0.4-1.3-1.8-2-3.1-1.6l-6.7,2.2l-2.1-5l6.3-3.2c1.2-0.6,1.7-2.1,1.1-3.3l-4.3-8.4
				c-0.3-0.6-0.8-1-1.4-1.2c-0.6-0.2-1.3-0.1-1.9,0.1l-6.3,3.2l-2.8-4.6l5.7-4.1c1.1-0.8,1.3-2.3,0.5-3.4l-5.6-7.7
				c-0.8-1.1-2.3-1.3-3.4-0.5l-5.7,4.1l-3.5-4.1l5-5c0.9-0.9,0.9-2.5,0-3.4l-6.7-6.7c-1-1-2.5-0.9-3.4,0l-5,5l-4.1-3.5l4.1-5.7
				c0.8-1.1,0.5-2.6-0.5-3.4l-7.7-5.6c-0.5-0.4-1.1-0.5-1.8-0.4c-0.6,0.1-1.2,0.4-1.6,1l-4.1,5.7l-4.6-2.8l3.2-6.3
				c0.6-1.2,0.1-2.7-1.1-3.3l-8.4-4.3c-1.2-0.6-2.7-0.1-3.3,1.1l-3.2,6.3l-5-2.1l2.2-6.7c0.2-0.6,0.1-1.3-0.1-1.9
				c-0.3-0.6-0.8-1-1.4-1.2l-9-2.9c-1.3-0.4-2.6,0.3-3.1,1.6l-2.2,6.7l-5.3-1.3l1.1-7c0.2-1.3-0.7-2.6-2-2.8l-9.3-1.5
				c-1.3-0.2-2.6,0.7-2.8,2l-1.1,7l-5.4-0.4v-7c0-1.3-1.1-2.4-2.4-2.4h-9.5c-1.3,0-2.4,1.1-2.4,2.4v7l-5.4,0.4l-1.1-7
				c-0.1-0.6-0.4-1.2-1-1.6c-0.5-0.4-1.2-0.5-1.8-0.4l-9.3,1.5c-1.3,0.2-2.2,1.5-2,2.8l1.1,7l-5.3,1.3l-2.2-6.7
				c-0.4-1.3-1.8-2-3.1-1.6l-9,2.9c-0.6,0.2-1.1,0.6-1.4,1.2c-0.3,0.6-0.3,1.2-0.1,1.9l2.2,6.7l-5,2.1l-3.2-6.3
				c-0.6-1.2-2.1-1.7-3.3-1.1l-8.4,4.3c-1.2,0.6-1.7,2.1-1.1,3.3l3.2,6.3l-4.6,2.8l-4.1-5.7c-0.8-1.1-2.3-1.3-3.4-0.5l-7.7,5.6
				c-0.5,0.4-0.9,0.9-1,1.6c-0.1,0.6,0.1,1.3,0.4,1.8l4.1,5.7l-4.1,3.5l-5-5c-0.9-0.9-2.5-0.9-3.4,0l-6.7,6.7
				c-0.9,0.9-0.9,2.5,0,3.4l5,5l-3.5,4.1l-5.7-4.1c-1.1-0.8-2.6-0.5-3.4,0.5l-5.6,7.7c-0.8,1.1-0.5,2.6,0.5,3.4l5.7,4.1l-2.8,4.6
				l-6.3-3.2c-1.2-0.6-2.7-0.1-3.3,1.1l-4.3,8.4c-0.6,1.2-0.1,2.7,1.1,3.3l6.3,3.2l-2.1,5l-6.7-2.2c-0.6-0.2-1.3-0.1-1.9,0.1
				c-0.6,0.3-1,0.8-1.2,1.4l-2.9,9c-0.4,1.3,0.3,2.6,1.6,3.1l6.7,2.2l-1.3,5.3l-7-1.1c-1.3-0.2-2.6,0.7-2.8,2l-1.5,9.3
				c-0.2,1.3,0.7,2.6,2,2.8l7,1.1l-0.4,5.4h-7c-1.3,0-2.4,1.1-2.4,2.4v9.5c0,1.3,1.1,2.4,2.4,2.4h7l0.4,5.4l-7,1.1
				c-1.3,0.2-2.2,1.5-2,2.8l1.5,9.3c0.2,1.3,1.5,2.2,2.8,2l7-1.1l1.3,5.3l-6.7,2.2c-1.3,0.4-2,1.8-1.6,3.1l2.9,9
				c0.4,1.3,1.8,2,3.1,1.6l6.7-2.2l2.1,5l-6.3,3.2c-1.2,0.6-1.7,2.1-1.1,3.3l4.3,8.4c0.6,1.2,2.1,1.7,3.3,1.1l6.3-3.2l2.8,4.6
				l-5.7,4.1c-0.5,0.4-0.9,0.9-1,1.6c-0.1,0.6,0.1,1.3,0.4,1.8l5.6,7.7c0.8,1.1,2.3,1.3,3.4,0.5l5.7-4.1l3.5,4.1l-5,5
				c-0.9,0.9-0.9,2.5,0,3.4l6.7,6.7c0.9,0.9,2.5,1,3.4,0l5-5l4.1,3.5l-4.1,5.7c-0.8,1.1-0.5,2.6,0.5,3.4l7.7,5.6
				c1.1,0.8,2.6,0.5,3.4-0.5l4.1-5.7l4.6,2.8l-3.2,6.3c-0.3,0.6-0.3,1.2-0.1,1.9c0.2,0.6,0.6,1.1,1.2,1.4l8.4,4.3
				c1.2,0.6,2.7,0.1,3.3-1.1l3.2-6.3l5,2.1l-2.2,6.7c-0.4,1.3,0.3,2.6,1.6,3.1l9,2.9c0.6,0.2,1.3,0.2,1.9-0.1c0.6-0.3,1-0.8,1.2-1.4
				l2.2-6.7l5.3,1.3l-1.1,7c-0.2,1.3,0.7,2.6,2,2.8l9.3,1.5c1.4,0.2,2.6-0.7,2.8-2L458.4,301.5z"/>
		</g>
	</g>
	<g id="XMLID_227_">
		<g id="circler_group">
		<path id="circler" class="st1" d="M603.8,184.7c1.9,0,3.5-1.6,3.5-3.5v-9.5c0-1.9-1.6-3.5-3.5-3.5h-6.1l-0.3-3.5l6-0.9
			c1.9-0.3,3.2-2.1,2.9-4l-1.5-9.3c-0.3-1.9-2.1-3.2-4-2.9l-6,0.9l-0.8-3.4l5.8-1.9c1.8-0.6,2.8-2.6,2.2-4.4l-2.9-9
			c-0.6-1.8-2.6-2.8-4.4-2.2l-5.8,1.9l-1.3-3.2l5.4-2.8c1.7-0.9,2.4-3,1.5-4.7l-4.3-8.4c-0.9-1.7-3-2.4-4.7-1.5l-5.4,2.8l-1.8-3
			l4.9-3.6c1.6-1.1,1.9-3.3,0.8-4.9l-5.6-7.7c-1.1-1.6-3.3-1.9-4.9-0.8l-4.9,3.6l-2.3-2.7l4.3-4.3c1.4-1.4,1.4-3.6,0-4.9l-6.7-6.7
			c-1.4-1.4-3.6-1.4-4.9,0l-4.3,4.3l-2.7-2.3l3.6-4.9c1.1-1.6,0.8-3.7-0.8-4.9l-7.7-5.6c-1.6-1.1-3.7-0.8-4.9,0.8l-3.6,4.9l-3-1.8
			l2.8-5.4c0.9-1.7,0.2-3.8-1.5-4.7l-8.4-4.3c-1.7-0.9-3.8-0.2-4.7,1.5l-2.8,5.4l-3.2-1.3l1.9-5.8c0.6-1.8-0.4-3.8-2.2-4.4l-9-2.9
			c-1.8-0.6-3.8,0.4-4.4,2.2l-1.9,5.8l-3.4-0.8l0.9-6c0.3-1.9-1-3.7-2.9-4l-9.3-1.5c-1.9-0.3-3.7,1-4,2.9l-0.9,6l-3.5-0.3v-6.1
			c0-1.9-1.6-3.5-3.5-3.5h-9.5c-1.9,0-3.5,1.6-3.5,3.5v6.1l-3.5,0.3l-0.9-6c-0.3-1.9-2.1-3.2-4-2.9l-9.3,1.5c-1.9,0.3-3.2,2.1-2.9,4
			l0.9,6l-3.4,0.8l-1.9-5.8c-0.6-1.8-2.6-2.8-4.4-2.2l-9,2.9c-1.8,0.6-2.8,2.6-2.2,4.4l1.9,5.8l-3.2,1.3l-2.8-5.4
			c-0.9-1.7-3-2.4-4.7-1.5l-8.4,4.3c-1.7,0.9-2.4,3-1.5,4.7l2.8,5.4l-3,1.8l-3.6-4.9c-1.1-1.6-3.3-1.9-4.9-0.8l-7.7,5.6
			c-1.6,1.1-1.9,3.3-0.8,4.9l3.6,4.9l-2.7,2.3l-4.3-4.3c-1.4-1.4-3.6-1.4-4.9,0l-6.7,6.7c-1.4,1.4-1.4,3.6,0,4.9l4.3,4.3l-2.3,2.7
			l-4.9-3.6c-1.6-1.1-3.7-0.8-4.9,0.8l-5.6,7.7c-1.1,1.6-0.8,3.7,0.8,4.9l4.9,3.6l-1.8,3l-5.4-2.8c-1.7-0.9-3.8-0.2-4.7,1.5
			l-4.3,8.4c-0.9,1.7-0.2,3.8,1.5,4.7l5.4,2.8l-1.3,3.2l-5.8-1.9c-1.8-0.6-3.8,0.4-4.4,2.2l-2.9,9c-0.6,1.8,0.4,3.8,2.2,4.4l5.8,1.9
			l-0.8,3.4l-6-0.9c-1.9-0.3-3.7,1-4,2.9l-1.5,9.3c-0.3,1.9,1,3.7,2.9,4l6,0.9l-0.3,3.5h-6.1c-1.9,0-3.5,1.6-3.5,3.5v9.5
			c0,1.9,1.6,3.5,3.5,3.5h6.1l0.3,3.5l-6,0.9c-1.9,0.3-3.2,2.1-2.9,4l1.5,9.3c0.3,1.9,2.1,3.2,4,2.9l6-0.9l0.8,3.4l-5.8,1.9
			c-1.8,0.6-2.8,2.6-2.2,4.4l2.9,9c0.6,1.8,2.6,2.8,4.4,2.2l5.8-1.9l1.3,3.2l-5.4,2.8c-1.7,0.9-2.4,3-1.5,4.7l4.3,8.4
			c0.9,1.7,3,2.4,4.7,1.5l5.4-2.8l1.8,3l-4.9,3.6c-1.6,1.1-1.9,3.3-0.8,4.9l5.6,7.7c1.1,1.6,3.3,1.9,4.9,0.8l4.9-3.6l2.3,2.7
			l-4.3,4.3c-1.4,1.4-1.4,3.6,0,4.9l6.7,6.7c1.4,1.4,3.6,1.4,4.9,0l4.3-4.3l2.7,2.3l-3.6,4.9c-1.1,1.6-0.8,3.7,0.8,4.9l7.7,5.6
			c1.6,1.1,3.7,0.8,4.9-0.8l3.6-4.9l3,1.8l-2.8,5.4c-0.9,1.7-0.2,3.8,1.5,4.7l8.4,4.3c1.7,0.9,3.8,0.2,4.7-1.5l2.8-5.4l3.2,1.3
			l-1.9,5.8c-0.6,1.8,0.4,3.8,2.2,4.4l9,2.9c1.8,0.6,3.8-0.4,4.4-2.2l1.9-5.8l3.4,0.8l-0.9,6c-0.3,1.9,1,3.7,2.9,4l9.3,1.5
			c1.9,0.3,3.7-1,4-2.9l0.9-6l3.5,0.3v6.1c0,1.9,1.6,3.5,3.5,3.5h9.5c1.9,0,3.5-1.6,3.5-3.5v-6.1l3.5-0.3l0.9,6
			c0.3,1.9,2.1,3.2,4,2.9l9.3-1.5c1.9-0.3,3.2-2.1,2.9-4l-0.9-6l3.4-0.8l1.9,5.8c0.6,1.8,2.6,2.8,4.4,2.2l9-2.9
			c1.8-0.6,2.8-2.6,2.2-4.4l-1.9-5.8l3.2-1.3l2.8,5.4c0.9,1.7,3,2.4,4.7,1.5l8.4-4.3c1.7-0.9,2.4-3,1.5-4.7l-2.8-5.4l3-1.8l3.6,4.9
			c1.1,1.6,3.3,1.9,4.9,0.8l7.7-5.6c1.6-1.1,1.9-3.3,0.8-4.9l-3.6-4.9l2.7-2.3l4.3,4.3c1.4,1.4,3.6,1.4,4.9,0l6.7-6.7
			c1.4-1.4,1.4-3.6,0-4.9l-4.3-4.3l2.3-2.7l4.9,3.6c1.6,1.1,3.7,0.8,4.9-0.8l5.6-7.7c1.1-1.6,0.8-3.7-0.8-4.9l-4.9-3.6l1.8-3
			l5.4,2.8c1.7,0.9,3.8,0.2,4.7-1.5l4.3-8.4c0.9-1.7,0.2-3.8-1.5-4.7l-5.4-2.8l1.3-3.2l5.8,1.9c1.8,0.6,3.8-0.4,4.4-2.2l2.9-9
			c0.6-1.8-0.4-3.8-2.2-4.4l-5.8-1.9l0.8-3.4l6,0.9c1.9,0.3,3.7-1,4-2.9l1.5-9.3c0.3-1.9-1-3.7-2.9-4l-6-0.9l0.3-3.5H603.8z
			 M471,272.6c-53.1,0-96.1-43-96.1-96.1s43-96.1,96.1-96.1s96.1,43,96.1,96.1S524.1,272.6,471,272.6z"/>
		</g>
		<g id="XMLID_258_">
			<path id="XMLID_259_" class="st1" d="M471,268c-50.5,0-91.6-41.1-91.6-91.6s41.1-91.6,91.6-91.6s91.6,41.1,91.6,91.6
				S521.5,268,471,268z M471,91.4c-46.9,0-85,38.1-85,85s38.1,85,85,85s85-38.1,85-85S517.9,91.4,471,91.4z"/>
		</g>
		<g id="XMLID_255_">
			<path id="XMLID_256_" class="st1" d="M443.9,154.7l-1.6,4.4l-4.5-1.3l0.7,5l-5.6-2l2.7,3.7l-7.9-1.9l2.5,3.5
				c-9.9,0.7-20.9-11.6-20.9-11.6c4.8,13,13.5,13.7,19.8,13.6c6.4-0.1,17.4-5.4,17.4-5.4C448,157.5,443.9,154.7,443.9,154.7z"/>
			<path id="XMLID_257_" class="st1" d="M418.9,184.9c-2.9,11.6,5.7,27.8,5.7,27.8l2.6-0.4c0,0-7.5-12.9-4.4-29.1l3.9,5.3l1.5-7.7
				l0.8,4.5l2.2-5.8l3.1,2.9l1.3-11.3C435.6,171.1,421.8,173.3,418.9,184.9z"/>
			<circle id="XMLID_262_" class="st1" cx="469.9" cy="182" r="1"/>
			<path id="XMLID_268_" class="st1" d="M440.3,223.5c4.5-8.9,10.9-2.5,10.9-2.5c22.5,20.9,30.9,17.5,30.9,17.5l-26.3-25.9
				C440.7,198.7,440.3,223.5,440.3,223.5z"/>
			<circle id="XMLID_269_" class="st1" cx="428.8" cy="218.7" r="4.2"/>
			<circle id="XMLID_436_" class="st1" cx="489.3" cy="180.6" r="0.9"/>
			<path id="XMLID_437_" class="st1" d="M519.5,198.5c-5.3-6-15.3-6.7-15.3-6.7c-11.1,8-4.9,25.6-4.9,25.6
				C502.1,195.6,519.5,198.5,519.5,198.5z"/>
			<circle id="XMLID_438_" class="st1" cx="475.3" cy="117.1" r="3.1"/>
			<circle id="XMLID_439_" class="st1" cx="424.3" cy="130.9" r="3.8"/>
			<path id="XMLID_440_" class="st1" d="M473.7,138.9c-1.4,3.1-7.3,1.4-7.3,1.4c5.4,5.5,9.1,3.5,9.1,3.5c-1.3,4.3-7.5,1.1-7.5,1.1
				c5.7,7,9.4,2.1,9.4,2.1c-0.8,6.5-12.7,0.9-12.7,0.9c10.3,16.3,18.9,1.9,18.9,1.9c-2.4-8.4-10-17.4-10-17.4
				c-5.7-8-14.8-7.9-27.1,0.7c-12.3,8.5-17.5,5.3-17.5,5.3l-2.6,2.3c8.8,7.4,32.5-6.1,32.5-6.1l-1.9,2.9
				C471.6,133.2,473.7,138.9,473.7,138.9z"/>
			<circle id="XMLID_441_" class="st1" cx="413.3" cy="145.5" r="3.1"/>
			<path id="XMLID_442_" class="st1" d="M471.2,158.9c0.7,0.4,1.3,0.7,2.1,0.8c8.2,2.1,12.1-7.8,12.1-7.8c-4.3,6.1-9.5,5.2-9.5,5.2
				c-4.2-0.3-12.7-5.6-12.7-5.6C464.8,155,469.3,157.8,471.2,158.9z"/>
			<path id="XMLID_445_" class="st1" d="M493.1,180.8l1.2-8.7c0,0-2.5-12.4-8.9-12.2c0,0-4.8,0.2-7.7,5.1c0,0-10.8-5.3-17.9-3.2
				c0,0-8.8,1.3-4,19.1c0,0-9.9,13.4,6.7,25.5c0,0-1.5,8.1,4.6,12.3c0,0,16.6,19.5,24.9,21.5c0,0,5.7,1.6,4.8-8.3
				c0,0-1.7-12.8-3.2-15.6c0,0,2.1-8.6,0.7-15c0,0,3.6-10.1,0.8-17.1C495.2,184.3,494,181.1,493.1,180.8z M485.8,165.4
				c3.2,1.1,8.5,10.5,6.6,7.6c-1.9-2.9-5-3-5-3c-2.5-0.6-4.5,5.2-4.5,5.2C482.4,169.4,485.8,165.4,485.8,165.4z M491.2,180.3
				c0.2,2.5-2.2,3.3-3.1,2.4c-0.9-0.9-0.8-2.9-0.8-2.9l-1.6,2.3h-1l2-3.6c5-1.3,5.7,2.6,5.7,2.6L491.2,180.3z M490.4,193
				c0,0-0.2-6.3-1.8-7.9c0,0,2.2,0.5,2.7-0.3C491.3,184.9,492.4,190.3,490.4,193z M485.1,198.4c0,0-7.9-1.5-3.3-6.9
				C481.9,191.5,481.5,196,485.1,198.4z M478.3,184.1l-1.2,5.7l0.1-5.3l-1.6-4.9L478.3,184.1z M469.7,187.1c0,0,2,0.7,3-0.5
				c0,0,0.7,5.4-1.2,8.8C471.5,195.4,471.6,189,469.7,187.1z M472.1,181.6c0.1,3.6-3.3,2.6-3.3,2.6c-1.9-0.9-1.3-3.1-1.3-3.1
				c-1.3-0.1-5.6,2.1-5.6,2.1c4.9-5.1,9.9-3.7,9.9-3.7c1.6,0.2,4,3.9,4,3.9l-2.3,0L472.1,181.6z M468.7,168c0,0,5.2,2.7,7.8,7.3
				c0,0-8.4-5.8-16.2,0.4C460.2,175.6,465.3,168,468.7,168z M458.5,187.9c0,0-0.2,13.1,11.4,8.5C470,196.4,455.7,208.4,458.5,187.9z
				 M469.7,200.2c12.2,8.9,20.3,0.5,20.3,0.5c0.3,0.5,0.8,6.7,0.8,6.7c0.6,15-7.7,12.8-7.7,12.8C474.2,217,469.7,200.2,469.7,200.2z
				 M478.3,220.9c0,0,9.4,6,13.1-1.9C491.5,219,491.3,233.9,478.3,220.9z M495.3,188.1c0.7,7.3-1.7,12.1-1.7,12.1
				c-0.4-5.4-3.9-3-3.9-3c-1.6,5.4-9.2,1.9-9.2,1.9c-3.2,1-5.9,0.5-5.9,0.5c-4.8-3,1.7-5.7,1.7-5.7c-2,1.3-2,3.3-2,3.3
				c-0.2,2.2,6.1,0.6,6.1,0.6c10,4.5,6.8-3.4,6.8-3.4c-0.3-2.2-5.5-11.1-5.5-11.1l0.6-6.2l0-0.1l0.7,6.8l2.3,4.2
				c2.8,7,6.1,6.2,6.1,6.2C493.8,192.6,495.3,188.1,495.3,188.1z"/>
			<path id="XMLID_457_" class="st1" d="M485,219c4.6-1.4,3.1-6.4,3.1-6.4c-4,4.1-11.1,0.8-11.1,0.8S480.4,220.3,485,219z"/>
			<path id="XMLID_458_" class="st1" d="M538.3,172.2c0,0-1.5-4.6-4.5-7.9c-2.6-2.9-6.7-3.9-10.4-2.8c-4.7,1.4-15.1,4.4-18.1,3.6
				c0,0-0.4,5.3-3.8,9.9l6.6-5.2l-1,4.5c0,0,5-1.6,6.5-5.5l-1.1,4.5l6.5-6l-0.8,3.9l7.2-5l-0.9,2.5c0,0,4.9-5.1,10.8,3.7
				L538.3,172.2z"/>
			<circle id="XMLID_459_" class="st1" cx="538.3" cy="178.7" r="3.8"/>
			<path id="XMLID_460_" class="st1" d="M488.9,203.6c-7.1,8.4-16.8-0.3-16.8-0.3C484.4,219.5,488.9,203.6,488.9,203.6z"/>
			<path id="XMLID_463_" class="st1" d="M471,95.9c-44.5,0-80.6,36.1-80.6,80.6s36.1,80.6,80.6,80.6s80.6-36.1,80.6-80.6
				S515.5,95.9,471,95.9z M541.8,186.3c-1.1,0.9-2.5,1.5-4,1.6c-1,0.1-1.8,0-2.6-0.1c-2.3-0.4-4.2-2-5.2-4.1
				c-3.3-6.7,2.7-10.3,2.7-10.3c-1.7-3.9-4.8-4.1-4.8-4.1c-3.7-0.2-9,3.2-10.7,4.4c-0.4,0.3-0.8,0.5-1.3,0.8
				c-11.2,5.6-19.3,2-19.3,2l-1.8,4.1c2.7,2.2,2.4,5.9,2.4,5.9c17-1,28.3,14.9,28.3,14.9c-12.1-3.9-18.6,3.9-18.6,3.9
				c-5.4,5.5-6.2,18.2-6.3,21.7c0,0.5,0,1.1,0,1.6c1,16.9-6.9,17.3-6.9,17.3c-6.4,0.2-13-5.5-13-5.5c-14.8,0.1-29.9-17.6-34.6-18.5
				c-0.1,0-0.1,0-0.2,0c-4.5-0.6-5,10-5,10c-2.8-8.5-3.4-17.9-3.4-17.9c-0.5-12.8,9-12.6,9-12.6c-0.4-0.5-3.6-4.7-5.5-10.4
				c-1.9-5.7,0.9-7.4,0.9-7.4l-0.3-0.7c-13.5,2.3-15.4,10.3-15.4,10.3c-2.5,5.7,3.2,18.9,3.2,18.9c7.3,3.3,6.5,8.1,5.1,10.9
				c-0.9,1.9-2.5,3.4-4.5,4.1c-2.6,0.9-4.7,0.2-6.2-0.7c-2.1-1.3-3.5-3.5-3.8-6c-0.6-4.7,3.4-7.2,3.4-7.2
				c-3.3-3.8-5.9-12.5-6.9-16.1c-0.4-1.6-0.7-3.3-0.8-4.9c-0.7-15.8,15.7-22.1,15.7-22.1c-3.1,0.8-9.9-0.1-9.9-0.1
				c-9.3-1.9-13-15.1-13-15.1s-6-2.6-4.6-8.9c1.4-6.3,10.3-8.5,14.1-2.4c3.7,6.1-1.9,10.4-1.9,10.4c1,1.9,3,4.3,3,4.3
				c4.3,5.7,11.4-0.2,11.4-0.2c7.3-5.6,12.4-5.5,12.4-5.5c7.8-6.6,21.6-9.5,21.6-9.5c-2.7-4.4-7.7-3.8-7.7-3.8
				c-2.9,0-14.6,3.9-14.6,3.9c-12.2,4.5-18.7-1.8-18.7-1.8c-6.7-0.5-8.7-3.9-9.2-7c-0.5-3.8,1.5-7.6,5-9.4c2.7-1.4,6.1-1.7,9.5,0.9
				c6,4.6,1.6,11.9,1.6,11.9c1.8,0.5,4.6-0.4,6.6-1.3c1.5-0.6,2.8-1.5,4.1-2.5c12.1-9.5,18.4-9.7,20.1-9.5c0.5,0.1,0.9,0.1,1.4,0.1
				c9.6,0.7,22,16.4,22,16.4c7-4.2,7.2-9.3,7.2-9.3c0.6-8.2-10.6-10.1-10.6-10.1c-0.8,1-1.9,1.6-2.8,1.9c-1.8,0.7-3.8,0.6-5.5-0.4
				c-0.1-0.1-0.2-0.1-0.3-0.2c-2-1.3-3.1-3.6-2.9-6c0.1-1.5,0.8-2.7,1.6-3.5c1.1-1.3,2.7-2,4.4-2.1c6.8-0.3,6.9,6.5,6.9,6.5
				c13.1,1.3,17,9.4,17,9.4c5.5,9.8-4.8,21.4-4.8,21.4c3.3,4.3,3.3,10.4,3.3,10.4c6.5,4.9,13.1,3.6,15.8,2.8
				c0.7-0.2,1.3-0.5,1.9-0.8c9.9-5.5,12.6-4.2,12.6-4.2c7.2,2,11.7,16.1,11.7,16.1c1,0.2,1.7,0.9,2.3,1.5c0.7,0.8,1.3,1.9,1.6,2.9
				C545.6,182.2,543.5,184.9,541.8,186.3z"/>
		</g>
	</g>
	<path id="XMLID_211_" class="st1" d="M877.2,168h8.7c6.9,0,11.7-1.2,14.5-3.6c2.8-2.4,4.2-5.4,4.2-9.1c0-3.6-1.2-6.6-3.6-9.2
		c-2.4-2.5-6.9-3.8-13.6-3.8h-10.1V168z M841.7,119h58.9c12.8,0,22.4,3,28.8,9.1c6.4,6.1,9.6,14.8,9.6,26.1
		c0,11.6-3.5,20.6-10.5,27.2c-7,6.5-17.6,9.8-31.9,9.8h-19.4v42.4h-35.5V119z M732.6,119h94.8v24.5h-59.2v18.2h54.9v23.4h-54.9v22.6
		h61v25.9h-96.5V119z M723.2,233.6h-39.9l-13.9-29.5c-3.2-7-5.7-11.4-7.6-13.2c-1.8-1.8-4.3-2.6-7.5-2.6v45.3H619V119h35.4v44
		c3.1-0.2,5.5-1.3,7.2-3.3c1.7-2,4.4-7.9,8.1-17.5c2.7-7.1,5.3-12.2,8.1-15.3c2.7-3.1,7.1-5.3,13.2-6.7c6.1-1.4,15.7-2,28.7-2v24.2
		h-1.8c-6.1,0-10.5,1.1-13.4,3.4c-2.9,2.3-5.3,6-7.2,11.2c-1.9,5.1-3.9,9-6.1,11.5c-2.2,2.5-5.1,4.6-8.9,6.1
		c5.1,1.7,9.6,4.6,13.3,8.6c3.8,4.1,7.8,10.5,12.1,19.1L723.2,233.6z M332.9,233.6H293L279.3,204c-3.3-7-5.8-11.3-7.7-13.1
		c-1.8-1.7-4.3-2.6-7.6-2.6v45.3h-35.4v-45.3c-3.3,0-5.8,0.9-7.7,2.6c-1.8,1.7-4.3,6.1-7.6,13.1l-13.7,29.6h-39.9l15.6-31.3
		c4.3-8.7,8.3-15.1,12.2-19.2c3.8-4.1,8.2-6.9,13.2-8.6c-3.7-1.5-6.6-3.5-8.8-6.1c-2.2-2.5-4.2-6.3-6.1-11.5
		c-1.8-5.1-4.2-8.9-7.1-11.2c-2.9-2.3-7.4-3.4-13.4-3.4h-1.8v-24.2c13,0,22.6,0.7,28.7,2c6.1,1.4,10.5,3.6,13.2,6.7
		c2.7,3.1,5.4,8.2,8.1,15.3c3.6,9.6,6.2,15.5,8,17.5c1.7,2,4.1,3.1,7.3,3.3v-44H264v44c3.1-0.2,5.5-1.3,7.2-3.3
		c1.7-2,4.4-7.9,8.1-17.5c2.7-7.1,5.3-12.2,8.1-15.3c2.7-3.1,7.1-5.3,13.2-6.7c6.1-1.4,15.7-2,28.7-2v24.2h-1.8
		c-6.1,0-10.5,1.1-13.4,3.4c-2.9,2.3-5.3,6-7.2,11.2c-1.9,5.1-3.9,9-6.1,11.5c-2.2,2.5-5.1,4.6-8.8,6.1c5,1.7,9.5,4.6,13.3,8.6
		c3.8,4.1,7.8,10.5,12.1,19.1L332.9,233.6z M105.4,207.2v-60H76.9v1.5c0,15.8-2.7,35.3-8,58.5H105.4z M153.1,258.6h-28.5v-25H51.5
		v25H23v-51.4h11.8c6.6-18.5,10-39.4,10-62.6V119h96v88.2h12.3V258.6z"/>
	<path id="XMLID_159_" class="st1" d="M845.5,327.8h5.8v18.7h-5.8V327.8z M837.4,338.9l5.1,1.5c-0.3,1.4-0.9,2.6-1.6,3.6
		c-0.7,1-1.6,1.7-2.7,2.2c-1.1,0.5-2.5,0.7-4.1,0.7c-2,0-3.7-0.3-5-0.9c-1.3-0.6-2.4-1.6-3.3-3.1c-0.9-1.5-1.4-3.4-1.4-5.7
		c0-3.1,0.8-5.5,2.5-7.1c1.7-1.7,4-2.5,7-2.5c2.4,0,4.2,0.5,5.6,1.4c1.3,1,2.4,2.4,3,4.4l-5.1,1.1c-0.2-0.6-0.4-1-0.6-1.2
		c-0.3-0.4-0.7-0.8-1.2-1c-0.5-0.2-1-0.4-1.6-0.4c-1.3,0-2.3,0.5-3,1.6c-0.5,0.8-0.8,2-0.8,3.7c0,2.1,0.3,3.5,0.9,4.3
		c0.6,0.8,1.5,1.2,2.7,1.2c1.1,0,1.9-0.3,2.5-0.9C836.8,340.9,837.2,340,837.4,338.9z M822.9,346.5h-6.5l-2.3-4.8
		c-0.5-1.1-0.9-1.9-1.2-2.1c-0.3-0.3-0.7-0.4-1.2-0.4v7.4h-5.8v-18.7h5.8v7.2c0.5,0,0.9-0.2,1.2-0.5c0.3-0.3,0.7-1.3,1.3-2.9
		c0.4-1.2,0.9-2,1.3-2.5c0.4-0.5,1.2-0.9,2.2-1.1c1-0.2,2.6-0.3,4.7-0.3v3.9H822c-1,0-1.7,0.2-2.2,0.6c-0.5,0.4-0.9,1-1.2,1.8
		c-0.3,0.8-0.6,1.5-1,1.9c-0.4,0.4-0.8,0.7-1.4,1c0.8,0.3,1.6,0.7,2.2,1.4c0.6,0.7,1.3,1.7,2,3.1L822.9,346.5z M795.8,339.4l-2-6.7
		l-2.1,6.7H795.8z M797,343.4h-6.6l-0.9,3.1h-5.9l7-18.7h6.3l7,18.7H798L797,343.4z M765.3,327.8h17.6v4.6H777v14.1h-5.8v-14.1h-5.9
		V327.8z M747.9,339.4l-2-6.7l-2.1,6.7H747.9z M749.1,343.4h-6.6l-0.9,3.1h-5.9l7-18.7h6.3l7,18.7h-6.1L749.1,343.4z M723.1,342.5h3
		c1.8,0,2.7-0.7,2.7-2c0-1.1-0.9-1.7-2.7-1.7h-3V342.5z M723.1,335h3.1c2.8,0,4.9,0.5,6.3,1.5c1.4,1,2.1,2.6,2.1,4.7
		c0,1.7-0.6,3-1.9,4c-1.3,0.9-3.1,1.4-5.4,1.4h-9.9v-18.7h15.8v3.8h-10V335z M715.2,346.5h-6.5l-2.2-4.8c-0.5-1.1-1-1.9-1.3-2.1
		c-0.3-0.3-0.7-0.4-1.2-0.4v7.4h-5.8v-7.4c-0.5,0-1,0.1-1.3,0.4c-0.3,0.3-0.7,1-1.2,2.1l-2.2,4.8h-6.5l2.5-5.1
		c0.7-1.4,1.4-2.5,2-3.1c0.6-0.7,1.3-1.1,2.2-1.4c-0.6-0.2-1.1-0.6-1.4-1c-0.4-0.4-0.7-1-1-1.9c-0.3-0.8-0.7-1.4-1.2-1.8
		c-0.5-0.4-1.2-0.6-2.2-0.6h-0.3v-3.9c2.1,0,3.7,0.1,4.7,0.3c1,0.2,1.7,0.6,2.1,1.1c0.4,0.5,0.9,1.3,1.3,2.5c0.6,1.6,1,2.5,1.3,2.9
		c0.3,0.3,0.7,0.5,1.2,0.5v-7.2h5.8v7.2c0.5,0,0.9-0.2,1.2-0.5c0.3-0.3,0.7-1.3,1.3-2.9c0.4-1.2,0.9-2,1.3-2.5
		c0.4-0.5,1.2-0.9,2.2-1.1c1-0.2,2.6-0.3,4.7-0.3v3.9h-0.3c-1,0-1.7,0.2-2.2,0.6c-0.5,0.4-0.9,1-1.2,1.8c-0.3,0.8-0.6,1.5-1,1.9
		c-0.4,0.4-0.8,0.7-1.4,1c0.8,0.3,1.5,0.7,2.2,1.4c0.6,0.7,1.3,1.7,2,3.1L715.2,346.5z M669.6,327.8h6.3l2.6,7.7l2.5-7.7h5.9
		l-6.1,14.5c-0.5,1.2-0.9,2-1.3,2.6c-0.4,0.6-0.9,1-1.7,1.4c-0.7,0.4-1.7,0.6-3,0.6c-0.7,0-1.9-0.1-3.5-0.3v-3.9
		c1,0.1,1.7,0.2,2.1,0.2c1.3,0,2.2-0.5,2.4-1.5L669.6,327.8z M667.5,346.5h-5.8v-14.1h-4.5v5.8c0,2.4-0.1,4.1-0.4,5.2
		c-0.3,1.1-0.8,1.9-1.8,2.4c-0.9,0.5-2.4,0.8-4.5,0.8c-0.6,0-1.4-0.1-2.2-0.2v-3.8h0.9c0.8,0,1.3-0.2,1.7-0.5c0.3-0.3,0.5-1,0.5-1.9
		v-12.4h16.1V346.5z M642.4,338.9l5.1,1.5c-0.3,1.4-0.9,2.6-1.6,3.6c-0.7,1-1.6,1.7-2.7,2.2c-1.1,0.5-2.5,0.7-4.1,0.7
		c-2,0-3.7-0.3-5-0.9c-1.3-0.6-2.4-1.6-3.3-3.1c-0.9-1.5-1.4-3.4-1.4-5.7c0-3.1,0.8-5.5,2.5-7.1c1.7-1.7,4-2.5,7-2.5
		c2.4,0,4.2,0.5,5.6,1.4c1.3,1,2.4,2.4,3,4.4l-5.1,1.1c-0.2-0.6-0.4-1-0.6-1.2c-0.3-0.4-0.7-0.8-1.2-1c-0.5-0.2-1-0.4-1.6-0.4
		c-1.3,0-2.3,0.5-3,1.6c-0.5,0.8-0.8,2-0.8,3.7c0,2.1,0.3,3.5,0.9,4.3c0.6,0.8,1.5,1.2,2.7,1.2c1.1,0,1.9-0.3,2.5-0.9
		C641.8,340.9,642.2,340,642.4,338.9z M611.2,339.4l-2-6.7l-2.1,6.7H611.2z M612.4,343.4h-6.6l-0.9,3.1H599l7-18.7h6.3l7,18.7h-6.1
		L612.4,343.4z M598.8,346.5h-6.5l-2.3-4.8c-0.5-1.1-0.9-1.9-1.2-2.1c-0.3-0.3-0.7-0.4-1.2-0.4v7.4h-5.8v-18.7h5.8v7.2
		c0.5,0,0.9-0.2,1.2-0.5c0.3-0.3,0.7-1.3,1.3-2.9c0.4-1.2,0.9-2,1.3-2.5c0.4-0.5,1.2-0.9,2.2-1.1c1-0.2,2.6-0.3,4.7-0.3v3.9h-0.3
		c-1,0-1.7,0.2-2.2,0.6c-0.5,0.4-0.9,1-1.2,1.8c-0.3,0.8-0.6,1.5-1,1.9c-0.4,0.4-0.8,0.7-1.4,1c0.8,0.3,1.6,0.7,2.2,1.4
		c0.6,0.7,1.3,1.7,2,3.1L598.8,346.5z M567.4,342.5h3c1.8,0,2.7-0.7,2.7-2c0-1.1-0.9-1.7-2.7-1.7h-3V342.5z M567.4,335h3.1
		c2.8,0,4.9,0.5,6.3,1.5c1.4,1,2.1,2.6,2.1,4.7c0,1.7-0.6,3-1.9,4c-1.3,0.9-3.1,1.4-5.4,1.4h-9.9v-18.7h5.8V335z M553.7,338.9
		l5.1,1.5c-0.3,1.4-0.9,2.6-1.6,3.6c-0.7,1-1.6,1.7-2.7,2.2c-1.1,0.5-2.5,0.7-4.1,0.7c-2,0-3.7-0.3-5-0.9c-1.3-0.6-2.4-1.6-3.3-3.1
		c-0.9-1.5-1.4-3.4-1.4-5.7c0-3.1,0.8-5.5,2.5-7.1c1.7-1.7,4-2.5,7-2.5c2.4,0,4.2,0.5,5.6,1.4c1.3,1,2.4,2.4,3,4.4l-5.1,1.1
		c-0.2-0.6-0.4-1-0.6-1.2c-0.3-0.4-0.7-0.8-1.2-1c-0.5-0.2-1-0.4-1.6-0.4c-1.3,0-2.3,0.5-3,1.6c-0.5,0.8-0.8,2-0.8,3.7
		c0,2.1,0.3,3.5,0.9,4.3c0.6,0.8,1.5,1.2,2.7,1.2c1.1,0,1.9-0.3,2.5-0.9C553,340.9,553.5,340,553.7,338.9z M528.1,335.8h1.4
		c1.1,0,1.9-0.2,2.4-0.6c0.5-0.4,0.7-0.9,0.7-1.5c0-0.6-0.2-1.1-0.6-1.5c-0.4-0.4-1.1-0.6-2.2-0.6h-1.7V335.8z M522.3,327.8h9.6
		c2.1,0,3.7,0.5,4.7,1.5c1,1,1.6,2.4,1.6,4.3c0,1.9-0.6,3.4-1.7,4.4c-1.1,1.1-2.9,1.6-5.2,1.6h-3.2v6.9h-5.8V327.8z M503.5,327.8
		H519v4h-9.7v3h9v3.8h-9v3.7h10v4.2h-15.8V327.8z M499.7,346.5h-5.8v-7c-1.8,1-3.5,1.5-5,1.5c-1.9,0-3.5-0.6-4.7-1.7
		c-1.2-1.1-1.9-2.7-1.9-4.6v-6.9h5.8v5.8c0,0.9,0.2,1.6,0.7,2.1c0.4,0.5,1.1,0.7,1.9,0.7c1.5,0,2.6-0.5,3.3-1.4v-7.2h5.8V346.5z
		 M462.3,327.8h17.6v4.6H474v14.1h-5.8v-14.1h-5.9V327.8z M444.7,327.8h15.5v4h-9.7v3h9v3.8h-9v3.7h10v4.2h-15.8V327.8z
		 M440.9,346.5h-5.8v-14.1h-6.4v14.1h-5.8v-18.7h17.9V346.5z M415.1,338.9l5.1,1.5c-0.3,1.4-0.9,2.6-1.6,3.6c-0.7,1-1.6,1.7-2.7,2.2
		c-1.1,0.5-2.5,0.7-4.1,0.7c-2,0-3.7-0.3-5-0.9c-1.3-0.6-2.4-1.6-3.3-3.1c-0.9-1.5-1.4-3.4-1.4-5.7c0-3.1,0.8-5.5,2.5-7.1
		c1.7-1.7,4-2.5,7-2.5c2.4,0,4.2,0.5,5.6,1.4c1.3,1,2.4,2.4,3,4.4l-5.1,1.1c-0.2-0.6-0.4-1-0.6-1.2c-0.3-0.4-0.7-0.8-1.2-1
		c-0.5-0.2-1-0.4-1.6-0.4c-1.3,0-2.3,0.5-3,1.6c-0.5,0.8-0.8,2-0.8,3.7c0,2.1,0.3,3.5,0.9,4.3c0.6,0.8,1.5,1.2,2.7,1.2
		c1.1,0,1.9-0.3,2.5-0.9C414.4,340.9,414.8,340,415.1,338.9z M398.7,327.8v18.7h-5.4v-10.3l-7,10.3h-5.5v-18.7h5.5v10.4l7-10.4
		H398.7z M370.7,342.2v-9.8h-4.7v0.2c0,2.6-0.4,5.8-1.3,9.6H370.7z M378.5,350.6h-4.7v-4.1h-11.9v4.1h-4.7v-8.4h1.9
		c1.1-3,1.6-6.4,1.6-10.2v-4.2h15.7v14.4h2V350.6z M348.9,337.7h7.6v4h-7.6V337.7z M333.5,337.2c0,1.9,0.4,3.2,1.1,4.1
		c0.7,0.8,1.7,1.2,2.9,1.2c1.2,0,2.2-0.4,2.9-1.2c0.7-0.8,1-2.3,1-4.4c0-1.8-0.4-3-1.1-3.9c-0.7-0.8-1.7-1.2-2.9-1.2
		c-1.2,0-2.1,0.4-2.8,1.2C333.8,333.9,333.5,335.3,333.5,337.2z M327.7,337.2c0-3.1,0.8-5.4,2.6-7.1c1.7-1.7,4.1-2.6,7.1-2.6
		c3.1,0,5.5,0.8,7.2,2.5c1.7,1.7,2.5,4,2.5,7c0,2.2-0.4,4-1.1,5.4c-0.7,1.4-1.8,2.5-3.2,3.3c-1.4,0.8-3.1,1.2-5.2,1.2
		c-2.1,0-3.9-0.3-5.2-1c-1.4-0.7-2.5-1.7-3.4-3.2C328.1,341.2,327.7,339.4,327.7,337.2z M306.7,327.8h5.8v6.5h6.3v-6.5h5.8v18.7
		h-5.8v-7.6h-6.3v7.6h-5.8V327.8z M298.5,323.2c-0.2,1.1-0.7,1.9-1.6,2.6c-0.9,0.7-1.9,1-3.1,1c-1.2,0-2.2-0.3-3.1-1
		c-0.9-0.7-1.4-1.5-1.5-2.6h2.2c0.4,1.1,1.1,1.6,2.3,1.6c1.3,0,2.1-0.5,2.5-1.6H298.5z M302.8,327.8v18.7h-5.4v-10.3l-7,10.3h-5.5
		v-18.7h5.5v10.4l7-10.4H302.8z M274.9,327.8h5.8v18.7h-5.8V327.8z M272.2,350.6h-4.7v-4.1h-15.3v-18.7h5.8v14.1h6.4v-14.1h5.8v14.4
		h2V350.6z M242.2,339.4l-2-6.7l-2.1,6.7H242.2z M243.4,343.4h-6.6l-0.9,3.1H230l7-18.7h6.3l7,18.7h-6.1L243.4,343.4z M207.1,327.8
		h7.6l2.9,11.4l2.9-11.4h7.6v18.7h-4.7v-14.3l-3.7,14.3h-4.3l-3.6-14.3v14.3h-4.7V327.8z M194.1,335.8h1.4c1.1,0,1.9-0.2,2.4-0.6
		c0.5-0.4,0.7-0.9,0.7-1.5c0-0.6-0.2-1.1-0.6-1.5c-0.4-0.4-1.1-0.6-2.2-0.6h-1.7V335.8z M188.3,327.8h9.6c2.1,0,3.7,0.5,4.7,1.5
		c1,1,1.6,2.4,1.6,4.3c0,1.9-0.6,3.4-1.7,4.4c-1.1,1.1-2.9,1.6-5.2,1.6h-3.2v6.9h-5.8V327.8z M171.6,337.2c0,1.9,0.4,3.2,1.1,4.1
		c0.7,0.8,1.7,1.2,2.9,1.2c1.2,0,2.2-0.4,2.9-1.2c0.7-0.8,1-2.3,1-4.4c0-1.8-0.4-3-1.1-3.9c-0.7-0.8-1.7-1.2-2.9-1.2
		c-1.2,0-2.1,0.4-2.8,1.2C171.9,333.9,171.6,335.3,171.6,337.2z M165.8,337.2c0-3.1,0.8-5.4,2.6-7.1c1.7-1.7,4.1-2.6,7.1-2.6
		c3.1,0,5.5,0.8,7.2,2.5c1.7,1.7,2.5,4,2.5,7c0,2.2-0.4,4-1.1,5.4c-0.7,1.4-1.8,2.5-3.2,3.3c-1.4,0.8-3.1,1.2-5.2,1.2
		c-2.1,0-3.9-0.3-5.2-1c-1.4-0.7-2.5-1.7-3.4-3.2C166.2,341.2,165.8,339.4,165.8,337.2z M149.9,340.7V333c-0.9,0.2-1.6,0.7-2.1,1.5
		c-0.5,0.7-0.8,1.6-0.8,2.5c0,0.9,0.3,1.6,0.8,2.3C148.4,340,149.1,340.4,149.9,340.7z M155.2,340.7c0.9-0.3,1.6-0.7,2.1-1.4
		c0.5-0.7,0.8-1.5,0.8-2.4c0-0.9-0.3-1.7-0.8-2.4c-0.5-0.7-1.2-1.2-2.1-1.5V340.7z M155.2,329.2c5.7,0.6,8.5,3.1,8.5,7.7
		c0,4.6-2.8,7.2-8.5,7.7v1.9h-5.3v-2c-5.7-0.5-8.5-3-8.5-7.6c0-4.5,2.8-7.1,8.5-7.7v-1.4h5.3V329.2z M120.6,327.8h5.8v6.5h6.3v-6.5
		h5.8v18.7h-5.8v-7.6h-6.3v7.6h-5.8V327.8z M110.7,327.8h5.8v18.7h-5.8V327.8z"/>
	<g id="XMLID_226_">
		<g id="XMLID_219_">
			<path id="XMLID_222_" class="st2" d="M367,278c-275.4-0.1-273.7-1-315.3-14.2h301.9"/>
			<path id="XMLID_225_" class="st1" d="M160.1,283.7c36.6,11.6,39.7,13.7,227.5,14.1l-14.1-14.1L160.1,283.7z"/>
		</g>
		<g id="XMLID_220_">
			<path id="XMLID_223_" class="st2" d="M574.4,278c275.4-0.1,273.7-1,315.3-14.2H587.8"/>
			<path id="XMLID_221_" class="st1" d="M781.3,283.7c-36.6,11.6-39.7,13.7-227.5,14.1l14.1-14.1L781.3,283.7z"/>
		</g>
	</g>
</g>
</svg>
