<svg class="svg-icon" version="1.2" baseProfile="tiny" xmlns="http://www.w3.org/2000/svg" xmlns:xlink="http://www.w3.org/1999/xlink" width="100" height="100" viewBox="-199 201 100 100">
	<path id="back_playmarket" fill="#EEB711" d="M-177.9,207.4l72.1,37.7c4.8,2.5,4.8,9.3,0,11.8l-72.1,37.7c-4.4,2.3-9.7-0.9-9.7-5.9v-75.4
	C-187.6,208.3-182.3,205.1-177.9,207.4z"/>
	<path id="fore_playmarket" fill="#201F1F" d="M-107.4,247.1l-71.8-37c-2.5-1.3-5.4,0.8-5.4,3.9V288c0,3.1,2.9,5.2,5.4,3.9l71.8-37
	C-104.5,253.4-104.5,248.6-107.4,247.1z M-115.4,254.2c0,0-47.3,24.2-59.2,30c-0.6,0.3-1.2-0.5-0.7-0.9l28.3-31.4
	c0.4-0.4,0.4-1.1,0-1.6l-28.3-31.5c-0.4-0.5,0.1-1.2,0.7-0.9c11.9,5.8,59.1,30,59.1,30C-112.9,249-112.9,253-115.4,254.2z"/>
</svg>
